<?xml version="1.0" encoding="UTF-8" standalone="no"?>
<!-- Created with Inkscape (http://www.inkscape.org/) -->

<svg
   width="600"
   height="600"
   viewBox="0 0 158.75 158.75"
   version="1.1"
   id="svg5"
   inkscape:version="1.1.1 (c3084ef, 2021-09-22)"
   sodipodi:docname="bcflag.svg"
   xmlns:inkscape="http://www.inkscape.org/namespaces/inkscape"
   xmlns:sodipodi="http://sodipodi.sourceforge.net/DTD/sodipodi-0.dtd"
   xmlns="http://www.w3.org/2000/svg"
   xmlns:svg="http://www.w3.org/2000/svg">
  <sodipodi:namedview
     id="namedview7"
     pagecolor="#ffffff"
     bordercolor="#666666"
     borderopacity="1.0"
     inkscape:pageshadow="2"
     inkscape:pageopacity="0.0"
     inkscape:pagecheckerboard="0"
     inkscape:document-units="mm"
     showgrid="false"
     units="px"
     inkscape:snap-nodes="false"
     inkscape:zoom="0.88662317"
     inkscape:cx="351.33302"
     inkscape:cy="301.14259"
     inkscape:window-width="1440"
     inkscape:window-height="748"
     inkscape:window-x="0"
     inkscape:window-y="25"
     inkscape:window-maximized="0"
     inkscape:current-layer="layer1" />
  <defs
     id="defs2" />
  <g
     inkscape:label="Layer 1"
     inkscape:groupmode="layer"
     id="layer1">
    <path
       style="fill:#ffffff;fill-opacity:1;stroke:#000000;stroke-width:0;stroke-linecap:butt;stroke-linejoin:miter;stroke-miterlimit:4;stroke-dasharray:none;stroke-opacity:1"
       d="M 20.742361,110.2502 135.63996,110.84328 135.21832,46.000714 21.164004,46.396097 Z"
       id="path8422" />
    <path
       style="fill:#ff0000;fill-opacity:1;stroke:#ffffff;stroke-width:3.67666;stroke-linecap:butt;stroke-linejoin:round;stroke-miterlimit:4;stroke-dasharray:none;stroke-opacity:1"
       d="m 44.234094,46.791686 28.726672,7.366789 v -7.42689 h 9.999228 l 0.033,7.395943 29.040666,-7.364999 22.17651,-0.03095 v 4.239516 l -17.19339,4.394243 17.19339,0.154728 -0.066,9.252666 -17.02839,-0.03095 17.1274,4.425189 v 5.167878 l -20.62549,-0.216615 -30.558705,-8.014851 -0.231004,7.922015 -9.900229,0.09284 -0.099,-8.014851 -30.822698,8.014855 -20.361469,0.154728 -0.033,-5.167878 17.292397,-4.301409 -17.259396,-0.06189 v -9.252667 l 17.325399,-0.123783 -17.3914,-5.446386 0.066,-3.249265 z"
       id="path1191" />
    <path
       style="fill:#000066;fill-opacity:1;stroke:#ffffff;stroke-width:3.71163;stroke-linecap:butt;stroke-linejoin:round;stroke-miterlimit:4;stroke-dasharray:none;stroke-opacity:1"
       d="m 72.64381,53.755456 0.04556,-7.020383 -27.905452,0.183673 z"
       id="path1471" />
    <path
       style="fill:#000066;fill-opacity:1;stroke:#ffffff;stroke-width:3.67666;stroke-linecap:butt;stroke-linejoin:round;stroke-miterlimit:4;stroke-dasharray:none;stroke-opacity:1"
       d="m 83.215643,53.997813 -0.04859,-7.274857 29.758367,0.190331 z"
       id="path1471-3" />
    <path
       style="fill:#000066;fill-opacity:1;stroke:#ffffff;stroke-width:3.80407;stroke-linecap:butt;stroke-linejoin:round;stroke-miterlimit:4;stroke-dasharray:none;stroke-opacity:1"
       d="m 83.083866,66.91653 -0.03769,7.555711 23.080714,-0.197679 z"
       id="path1471-3-7" />
    <path
       style="fill:#000066;fill-opacity:1;stroke:#ffffff;stroke-width:3.85509;stroke-linecap:butt;stroke-linejoin:round;stroke-miterlimit:4;stroke-dasharray:none;stroke-opacity:1"
       d="m 72.843253,66.844186 0.03896,7.506313 -23.859999,-0.196386 z"
       id="path1471-3-7-5" />
    <path
       style="fill:#000066;fill-opacity:1;stroke:#ffffff;stroke-width:3.67666;stroke-linecap:butt;stroke-linejoin:round;stroke-miterlimit:4;stroke-dasharray:none;stroke-opacity:1"
       d="M 21.542407,55.730403 38.658099,55.605504 21.475809,49.797643 Z"
       id="path6042"
       sodipodi:nodetypes="cccc" />
    <path
       style="fill:#000066;fill-opacity:1;stroke:#ffffff;stroke-width:3.52041;stroke-linecap:butt;stroke-linejoin:round;stroke-miterlimit:4;stroke-dasharray:none;stroke-opacity:1"
       d="m 21.598325,64.804303 17.873489,0.109656 -17.943035,5.09895 z"
       id="path6042-0"
       sodipodi:nodetypes="cccc" />
    <path
       style="fill:#000066;fill-opacity:1;stroke:#ffffff;stroke-width:3.67669;stroke-linecap:butt;stroke-linejoin:round;stroke-miterlimit:4;stroke-dasharray:none;stroke-opacity:1"
       d="m 134.15939,56.011379 -17.116,-0.124899 17.1826,-5.807835 z"
       id="path6042-8"
       sodipodi:nodetypes="cccc" />
    <path
       style="fill:#000066;fill-opacity:1;stroke:#ffffff;stroke-width:3.69012;stroke-linecap:butt;stroke-linejoin:round;stroke-miterlimit:4;stroke-dasharray:none;stroke-opacity:1"
       d="m 134.2191,64.886496 -17.10219,0.125915 17.16873,5.855068 z"
       id="path6042-8-2"
       sodipodi:nodetypes="cccc" />
    <path
       style="fill:none;stroke:#010067;stroke-width:7.44788;stroke-linecap:butt;stroke-linejoin:round;stroke-miterlimit:4;stroke-dasharray:none;stroke-opacity:1"
       d="m 21.310015,80.436709 2.677887,0.231566 3.698035,0.926257 2.167814,0.694693 2.550369,0.46313 2.295332,0.115782 2.932924,-0.115782 3.315478,-0.578912 2.805409,-0.926257 2.677887,-0.578911 2.677887,-0.115784 h 2.932924 l 3.315479,0.926259 3.953071,0.926259 1.912777,0.578911 h 2.550369 2.550369 l 3.187963,-0.578911 3.825553,-1.157823 3.825554,-0.694695 h 1.53022 l 3.315479,0.347348 3.698036,0.810475 2.932925,1.042041 3.442996,0.463128 h 3.570515 l 4.335628,-1.505169 4.718185,-1.042039 h 3.18796 l 4.59067,0.694693 3.82555,0.810475 3.18795,0.810477 2.93294,0.115782 3.95307,-0.115782 3.69803,-1.157823 3.18796,-0.463129 1.78526,-0.115782"
       id="path6509" />
    <path
       style="fill:none;stroke:#010067;stroke-width:7.43537;stroke-linecap:butt;stroke-linejoin:round;stroke-miterlimit:4;stroke-dasharray:none;stroke-opacity:1"
       d="m 21.3333,90.803246 2.667716,0.231668 3.683988,0.926662 2.159581,0.694997 2.540682,0.46333 2.286614,0.115832 2.921784,-0.115832 3.302886,-0.579162 2.794752,-0.926663 2.667716,-0.579164 2.667716,-0.115835 h 2.921783 l 3.302887,0.926665 3.938056,0.926664 1.905512,0.579165 h 2.540681 2.54068 l 3.17586,-0.579165 3.811023,-1.15833 3.811023,-0.694999 h 1.524404 l 3.302889,0.347499 3.683986,0.810831 2.921784,1.042494 3.429919,0.463333 h 3.55696 l 4.319164,-1.505827 4.700264,-1.042495 h 3.17585 l 4.57323,0.694997 3.81102,0.81083 3.17585,0.810832 2.92179,0.115839 3.93806,-0.115839 3.68398,-1.15833 3.17585,-0.463332 1.77848,-0.115833"
       id="path6509-6" />
    <path
       style="fill:none;stroke:#010067;stroke-width:7.42912;stroke-linecap:butt;stroke-linejoin:round;stroke-miterlimit:4;stroke-dasharray:none;stroke-opacity:1"
       d="m 21.763525,101.48169 2.662631,0.23172 3.676965,0.92686 2.155464,0.69516 2.535839,0.46343 2.282255,0.11585 2.916214,-0.11585 3.296589,-0.57929 2.789425,-0.92688 2.662631,-0.57928 2.66263,-0.11586 h 2.916213 l 3.29659,0.92686 3.93055,0.92688 1.901879,0.57928 h 2.535839 2.535839 l 3.1698,-0.57928 3.803757,-1.1586 3.803759,-0.69514 h 1.521502 l 3.29659,0.34757 3.676967,0.81101 2.916214,1.04273 3.423381,0.46343 h 3.550176 l 4.310918,-1.50616 4.691298,-1.04272 h 3.1698 l 4.56452,0.69515 3.80375,0.81101 3.1698,0.811 2.91622,0.11587 3.93055,-0.11587 3.67696,-1.15858 3.1698,-0.46343 1.77508,-0.11587"
       id="path6509-8" />
    <path
       style="fill:#ffd300;fill-opacity:1;stroke:#000000;stroke-width:0;stroke-linecap:butt;stroke-linejoin:miter;stroke-miterlimit:4;stroke-dasharray:none;stroke-opacity:1"
       d="m 45.19763,109.85482 c 32.677298,-29.455918 67.67363,0.19769 67.67363,0.19769 z"
       id="path7301" />
    <path
       style="fill:#ffd300;fill-opacity:1;stroke:#ffd300;stroke-width:2.34364;stroke-linecap:butt;stroke-linejoin:round;stroke-miterlimit:4;stroke-dasharray:none;stroke-opacity:1"
       d="m 105.90153,108.40946 4.27014,-2.65114 1.7824,-1.36387 2.84507,-2.73931 2.84335,-3.711218 1.8242,-1.273078 2.14549,-1.20986 2.8728,-0.118837 -0.0214,-0.03731 0.0342,0.04358 -1.75153,1.061067 -3.65046,2.637335 -1.91008,2.920721 -2.53975,3.31823 -6.78665,4.0684 -1.10751,0.59856 -0.7726,-1.24195 z"
       id="path11414-6-8-5-8-3"
       sodipodi:nodetypes="cccccccccccccccccc" />
    <path
       style="fill:#ffd300;fill-opacity:1;stroke:#ffd300;stroke-width:2.29955;stroke-linecap:butt;stroke-linejoin:round;stroke-miterlimit:4;stroke-dasharray:none;stroke-opacity:1"
       d="m 50.134845,107.65387 -4.099027,-2.65886 -1.71098,-1.36785 -2.731059,-2.74729 -2.729418,-3.722038 -1.751096,-1.276788 -2.059522,-1.213385 -2.757677,-0.119178 0.02055,-0.03745 -0.03287,0.04372 1.681339,1.064158 3.504184,2.645025 1.833543,2.929236 2.437976,3.3279 6.514692,4.08025 1.063125,0.60031 0.741653,-1.24557 z"
       id="path11414-6-8-5-8"
       sodipodi:nodetypes="cccccccccccccccccc" />
    <path
       style="fill:none;stroke:#000000;stroke-width:3.67666;stroke-linecap:butt;stroke-linejoin:round;stroke-miterlimit:4;stroke-dasharray:none;stroke-opacity:1"
       d="m 20.545586,45.90739 -0.225427,64.45617 115.434531,0.15203 -0.32426,-64.460469 z"
       id="path7200" />
    <path
       style="fill:#ffd300;fill-opacity:1;stroke:#000000;stroke-width:0;stroke-linecap:butt;stroke-linejoin:miter;stroke-miterlimit:4;stroke-dasharray:none;stroke-opacity:1"
       d="m 75.100969,97.165372 c 2.822772,-50.742969 5.645542,0 5.645542,0 z"
       id="path8523" />
    <path
       style="fill:#ffd300;fill-opacity:1;stroke:#000000;stroke-width:0;stroke-linecap:butt;stroke-linejoin:miter;stroke-miterlimit:4;stroke-dasharray:none;stroke-opacity:1"
       d="m 83.4381,98.024584 c 20.14381,-51.903665 5.391576,1.569958 5.391576,1.569958 z"
       id="path8523-5" />
    <path
       style="fill:#ffd300;fill-opacity:1;stroke:#000000;stroke-width:0;stroke-linecap:butt;stroke-linejoin:miter;stroke-miterlimit:4;stroke-dasharray:none;stroke-opacity:1"
       d="M 72.119507,99.055667 C 53.244046,47.152002 67.067412,100.62563 67.067412,100.62563 Z"
       id="path8523-5-3" />
    <path
       style="fill:#ffd300;fill-opacity:1;stroke:#000000;stroke-width:0;stroke-linecap:butt;stroke-linejoin:miter;stroke-miterlimit:4;stroke-dasharray:none;stroke-opacity:1"
       d="m 64.749072,103.46923 c -31.06615,-46.461219 -4.533495,2.61456 -4.533495,2.61456 z"
       id="path8523-5-3-5" />
    <path
       style="fill:#ffd300;fill-opacity:1;stroke:#000000;stroke-width:0;stroke-linecap:butt;stroke-linejoin:miter;stroke-miterlimit:4;stroke-dasharray:none;stroke-opacity:1"
       d="m 92.009767,101.97457 c 33.123803,-46.461212 4.833773,2.61456 4.833773,2.61456 z"
       id="path8523-5-3-5-2" />
    <path
       style="fill:#ffd300;fill-opacity:1;stroke:#000000;stroke-width:0;stroke-linecap:butt;stroke-linejoin:miter;stroke-miterlimit:4;stroke-dasharray:none;stroke-opacity:1"
       d="m 100.80223,104.11222 c 44.1098,-37.584016 4.01727,3.6319 4.01727,3.6319 z"
       id="path8523-5-3-5-2-5" />
    <path
       style="fill:#ffd300;fill-opacity:1;stroke:#000000;stroke-width:0;stroke-linecap:butt;stroke-linejoin:miter;stroke-miterlimit:4;stroke-dasharray:none;stroke-opacity:1"
       d="m 53.128695,103.83621 c -35.092098,-37.584016 -3.195992,3.6319 -3.195992,3.6319 z"
       id="path8523-5-3-5-2-5-3" />
    <path
       style="fill:#ffd300;fill-opacity:1;stroke:#ffd300;stroke-width:2.21655;stroke-linecap:butt;stroke-linejoin:round;stroke-miterlimit:4;stroke-dasharray:none;stroke-opacity:1"
       d="m 83.182619,97.760644 0.285405,-4.767029 0.332972,-2.118685 0.998917,-3.663554 1.807566,-4.149086 0.238717,-2.106859 0.04183,-2.333935 -1.191813,-2.373062 0.04063,-0.0012 -0.05163,-0.0061 -0.09513,1.942126 -0.552334,4.261075 -1.569727,3.001469 -1.617296,3.707692 -0.332973,7.503661 v 1.191767 h 1.379457 z"
       id="path11414-6"
       sodipodi:nodetypes="cccccccccccccccccc" />
    <path
       style="fill:#ffd300;fill-opacity:1;stroke:#ffd300;stroke-width:2.33543;stroke-linecap:butt;stroke-linejoin:round;stroke-miterlimit:4;stroke-dasharray:none;stroke-opacity:1"
       d="m 98.146584,102.28182 3.708776,-3.236863 1.50252,-1.605447 2.29872,-3.118583 2.12489,-4.079264 1.55949,-1.521709 1.88509,-1.505531 2.79,-0.531669 -0.0276,-0.03382 0.0412,0.03817 -1.52594,1.301617 -3.10486,3.133878 -1.3517,3.163131 -1.89742,3.646948 -5.92016,5.000942 -0.977683,0.75147 -0.975989,-1.11655 z"
       id="path11414-6-8"
       sodipodi:nodetypes="cccccccccccccccccc" />
    <path
       style="fill:#ffd300;fill-opacity:1;stroke:#ffd300;stroke-width:2.21655;stroke-linecap:butt;stroke-linejoin:round;stroke-miterlimit:4;stroke-dasharray:none;stroke-opacity:1"
       d="m 91.579164,99.535697 2.284571,-4.266949 1.204469,-1.819515 2.470954,-2.988367 3.418842,-3.132095 1.11298,-1.843836 1.02871,-2.125623 -0.0865,-2.6218 0.0378,0.01405 -0.0448,-0.02482 -0.91136,1.746276 -2.314774,3.703174 -2.71369,2.167971 -3.056997,2.798137 -3.489409,6.759876 -0.505687,1.093367 1.265561,0.514687 z"
       id="path11414-6-0"
       sodipodi:nodetypes="cccccccccccccccccc" />
    <path
       style="fill:#ffd300;fill-opacity:1;stroke:#ffd300;stroke-width:2.1825;stroke-linecap:butt;stroke-linejoin:round;stroke-miterlimit:4;stroke-dasharray:none;stroke-opacity:1"
       d="m 72.327938,97.736982 -0.276362,-4.772917 -0.322421,-2.121295 -0.967264,-3.668076 -1.750298,-4.154203 -0.231149,-2.109459 -0.04051,-2.336815 1.154051,-2.375989 -0.03933,-0.0012 0.05,-0.0061 0.09212,1.944522 0.534834,4.266332 1.519989,3.005171 1.566054,3.712265 0.322422,7.512924 v 1.193234 h -1.335755 z"
       id="path11414-6-88"
       sodipodi:nodetypes="cccccccccccccccccc" />
    <path
       style="fill:#ffd300;fill-opacity:1;stroke:#ffd300;stroke-width:2.29955;stroke-linecap:butt;stroke-linejoin:round;stroke-miterlimit:4;stroke-dasharray:none;stroke-opacity:1"
       d="m 57.838098,102.26374 -3.591269,-3.240857 -1.454914,-1.607434 -2.225882,-3.122428 -2.057566,-4.084299 -1.510084,-1.523587 -1.825358,-1.507389 -2.701606,-0.532325 0.02669,-0.03387 -0.03993,0.03822 1.477591,1.303224 3.006491,3.137744 1.308869,3.167034 1.837299,3.651449 5.73259,5.007108 0.946705,0.7524 0.945067,-1.11793 z"
       id="path11414-6-8-5"
       sodipodi:nodetypes="cccccccccccccccccc" />
    <path
       style="fill:#ffd300;fill-opacity:1;stroke:#ffd300;stroke-width:2.1825;stroke-linecap:butt;stroke-linejoin:round;stroke-miterlimit:4;stroke-dasharray:none;stroke-opacity:1"
       d="m 64.197435,99.514229 -2.212184,-4.272219 -1.166309,-1.821758 -2.392664,-2.992058 -3.310524,-3.135962 -1.077713,-1.846108 -0.996117,-2.128245 0.08374,-2.625035 -0.03662,0.01406 0.04338,-0.02484 0.882483,1.748431 2.241435,3.707742 2.627711,2.170642 2.960137,2.801592 3.378854,6.768226 0.489665,1.094712 -1.225464,0.515321 z"
       id="path11414-6-0-4"
       sodipodi:nodetypes="cccccccccccccccccc" />
    <ellipse
       style="fill:#ffd300;fill-opacity:1;fill-rule:evenodd;stroke:#ffd300;stroke-width:2.20599;stroke-linecap:round;stroke-linejoin:round;stroke-miterlimit:4;stroke-dasharray:none;stroke-opacity:1;paint-order:stroke fill markers"
       id="path13207"
       cx="77.70372"
       cy="61.444916"
       rx="6.6775846"
       ry="1.7483927" />
    <path
       style="fill:#ffd300;fill-opacity:1;stroke:#ffd300;stroke-width:0.194863;stroke-linecap:butt;stroke-linejoin:round;stroke-miterlimit:4;stroke-dasharray:none;stroke-opacity:1"
       d="m 69.898743,61.241611 v -4.635273 l 3.555598,3.740746 z"
       id="path13242" />
    <path
       style="fill:#ffd300;fill-opacity:1;stroke:#ffd300;stroke-width:0.214994;stroke-linecap:butt;stroke-linejoin:round;stroke-miterlimit:4;stroke-dasharray:none;stroke-opacity:1"
       d="m 85.340422,61.43516 v -4.61578 l -4.34647,3.725015 z"
       id="path13242-4" />
    <path
       style="fill:#ffd300;fill-opacity:1;stroke:#ffd300;stroke-width:0.194863;stroke-linecap:butt;stroke-linejoin:round;stroke-miterlimit:4;stroke-dasharray:none;stroke-opacity:1"
       d="M 82.386695,59.6152 81.432752,56.443697 79.611595,59.371239 78.137322,56.037094 76.489607,59.208597 74.32156,56.118415 72.587122,59.6152 Z"
       id="path13829" />
  </g>
</svg>
