<?xml version="1.0" encoding="UTF-8" standalone="no"?>
<!-- Created with Inkscape (http://www.inkscape.org/) -->

<svg
   width="600"
   height="600"
   viewBox="0 0 158.75 158.75"
   version="1.1"
   id="svg14789"
   inkscape:version="1.1.1 (c3084ef, 2021-09-22)"
   sodipodi:docname="covid.svg"
   xmlns:inkscape="http://www.inkscape.org/namespaces/inkscape"
   xmlns:sodipodi="http://sodipodi.sourceforge.net/DTD/sodipodi-0.dtd"
   xmlns="http://www.w3.org/2000/svg"
   xmlns:svg="http://www.w3.org/2000/svg">
  <sodipodi:namedview
     id="namedview14791"
     pagecolor="#ffffff"
     bordercolor="#666666"
     borderopacity="1.0"
     inkscape:pageshadow="2"
     inkscape:pageopacity="0.0"
     inkscape:pagecheckerboard="0"
     inkscape:document-units="mm"
     showgrid="false"
     units="px"
     inkscape:zoom="0.67388339"
     inkscape:cx="155.07134"
     inkscape:cy="259.68885"
     inkscape:window-width="1312"
     inkscape:window-height="748"
     inkscape:window-x="0"
     inkscape:window-y="25"
     inkscape:window-maximized="0"
     inkscape:current-layer="layer1" />
  <defs
     id="defs14786" />
  <g
     inkscape:label="Layer 1"
     inkscape:groupmode="layer"
     id="layer1">
    <ellipse
       style="fill:#ff0e00;fill-opacity:1;fill-rule:evenodd;stroke:#000000;stroke-width:6.16702;stroke-linecap:round;stroke-linejoin:round;stroke-miterlimit:4;stroke-dasharray:none;paint-order:stroke fill markers"
       id="path14872"
       cx="80.505959"
       cy="77.379128"
       rx="36.733074"
       ry="36.250153" />
    <path
       style="fill:#ff0e00;fill-opacity:1;stroke:#000000;stroke-width:3.08351;stroke-linecap:butt;stroke-linejoin:round;stroke-miterlimit:4;stroke-dasharray:none;stroke-opacity:1"
       d="m 59.955738,44.922533 h -2.8692 l -3.787346,-4.385498 -1.032913,-4.385498 -4.224795,-0.15231 v 0 l -3.349897,3.708119 v 3.911389 0 l 4.361186,0.474109 4.475956,4.622551 -0.918145,2.489066 z"
       id="path15077"
       sodipodi:nodetypes="ccccccccccccc" />
    <path
       style="fill:#ff0e00;fill-opacity:1;stroke:#000000;stroke-width:3.08351;stroke-linecap:butt;stroke-linejoin:round;stroke-miterlimit:4;stroke-dasharray:none;stroke-opacity:1"
       d="m 106.2325,49.648577 -0.57141,-2.903816 3.40711,-4.706414 3.95564,-1.918753 -0.69684,-4.306098 v 0 l -4.18573,-2.651837 -3.71148,0.778954 v 0 l 0.41865,4.508224 -3.4949,5.450541 -2.544717,-0.433523 z"
       id="path15077-6"
       sodipodi:nodetypes="ccccccccccccc" />
    <path
       style="fill:#ff0e00;fill-opacity:1;stroke:#000000;stroke-width:3.08351;stroke-linecap:butt;stroke-linejoin:round;stroke-miterlimit:4;stroke-dasharray:none;stroke-opacity:1"
       d="m 89.480022,91.170369 2.866057,-0.138589 3.981824,4.197752 1.23039,4.330801 4.227067,-0.0519 v 0 l 3.1783,-3.86587 -0.17714,-3.907109 v 0 l -4.37788,-0.262935 -4.680407,-4.401292 0.80441,-2.530692 z"
       id="path15077-6-1"
       sodipodi:nodetypes="ccccccccccccc" />
    <path
       style="fill:#ff0e00;fill-opacity:1;stroke:#000000;stroke-width:3.08351;stroke-linecap:butt;stroke-linejoin:round;stroke-miterlimit:4;stroke-dasharray:none;stroke-opacity:1"
       d="m 47.975399,74.5227 -1.513,2.5177 -5.605191,1.010781 -4.152705,-1.406204 -2.353148,3.626906 v 0 l 1.284251,4.89489 3.217969,2.062578 v 0 l 2.689821,-3.5769 6.163338,-1.490027 1.563639,2.118212 z"
       id="path15077-6-7"
       sodipodi:nodetypes="ccccccccccccc" />
    <path
       style="fill:#ff0e00;fill-opacity:1;stroke:#000000;stroke-width:3.08351;stroke-linecap:butt;stroke-linejoin:round;stroke-miterlimit:4;stroke-dasharray:none;stroke-opacity:1"
       d="m 50.946463,102.94566 0.131969,2.96003 -4.067729,4.10896 -4.194409,1.26732 0.047,4.36556 v 0 l 3.740795,3.2854 3.783339,-0.1799 v 0 l 0.257998,-4.52107 4.265348,-4.83027 2.449809,0.83273 z"
       id="path15077-6-7-3"
       sodipodi:nodetypes="ccccccccccccc" />
    <path
       style="fill:#ff0e00;fill-opacity:1;stroke:#000000;stroke-width:3.08351;stroke-linecap:butt;stroke-linejoin:round;stroke-miterlimit:4;stroke-dasharray:none;stroke-opacity:1"
       d="m 94.452794,113.65633 2.806069,0.6182 2.818067,5.10503 0.12425,4.51155 4.10105,1.05926 v 0 l 4.02528,-2.90473 0.79016,-3.82532 v 0 l -4.16944,-1.40335 -3.44364,-5.48524 1.40077,-2.23647 z"
       id="path15077-6-7-3-3"
       sodipodi:nodetypes="ccccccccccccc" />
    <path
       style="fill:#ff0e00;fill-opacity:1;stroke:#000000;stroke-width:3.08351;stroke-linecap:butt;stroke-linejoin:round;stroke-miterlimit:4;stroke-dasharray:none;stroke-opacity:1"
       d="m 106.85666,64.563305 0.57942,-2.902123 4.92378,-2.945155 4.36752,-0.159128 0.99764,-4.242498 v 0 l -2.84004,-4.137186 -3.70931,-0.789895 v 0 l -1.33035,4.315478 -5.28764,3.593803 -2.17505,-1.431338 z"
       id="path15077-6-7-3-3-0"
       sodipodi:nodetypes="ccccccccccccc" />
    <path
       style="fill:#ff0e00;fill-opacity:1;stroke:#000000;stroke-width:3.08351;stroke-linecap:butt;stroke-linejoin:round;stroke-miterlimit:4;stroke-dasharray:none;stroke-opacity:1"
       d="m 78.840251,58.558149 -2.727223,-0.920584 -2.280657,-5.383664 0.337463,-4.499896 -3.9699,-1.500327 v 0 l -4.299628,2.449794 -1.176643,3.71784 v 0 l 4.002748,1.849948 2.86389,5.829928 -1.621482,2.071309 z"
       id="path15077-6-7-3-3-9"
       sodipodi:nodetypes="ccccccccccccc"
       inkscape:transform-center-x="0.31979312"
       inkscape:transform-center-y="2.3129073" />
  </g>
</svg>
